<?xml version="1.0" encoding="UTF-8"?>
<svg id="Calque_2" data-name="Calque 2" xmlns="http://www.w3.org/2000/svg" viewBox="0 0 228.56 171.68">
  <defs>
    <style>
      .cls-1 {
        fill: none;
        stroke: #1d1d1b;
        stroke-linecap: square;
        stroke-linejoin: round;
        stroke-width: 19.84px;
      }
    </style>
  </defs>
  <g id="Calque_1-2" data-name="Calque 1">
    <path class="cls-1" d="m58.46,64.67c-26.81,0-48.54,21.74-48.54,48.54s21.73,48.55,48.54,48.55c12.99,0,24.79-5.1,33.49-13.41l.89-.87,21.43-21.03,7.62-7.47,25.73-25.23c7.8-7.38,13.16-17.31,14.73-28.47.31-2.23.48-4.5.48-6.82,0-26.81-21.73-48.55-48.54-48.55s-49.48,21.75-48.54,48.55c.06,1.71.3,5.12.48,6.82,1.13,10.72,6.48,20.24,13.74,27.51l26.7,26.2,7.61,7.47,21.49,21.08s15.6,14.21,34.33,14.21c26.81,0,48.54-21.74,48.54-48.55s-21.73-48.54-48.54-48.54"/>
  </g>
</svg>