<?xml version="1.0" encoding="UTF-8"?>
<svg id="Calque_2" data-name="Calque 2" xmlns="http://www.w3.org/2000/svg" viewBox="0 0 414.39 321.71">
  <defs>
    <style>
      .cls-1 {
        fill: #1d1d1b;
      }
    </style>
  </defs>
  <g id="Calque_1-2" data-name="Calque 1">
    <path class="cls-1" d="m104.21,121.22c-27.74,4.09-53.3,20.92-66.15,45.88-11.83,22.2-12.31,49.95-.79,72.22,16.33,31.79,53.76,47.89,87.69,35.75,7.81-2.72,15.12-6.98,21.41-12.34,1.52-1.26,3.24-2.88,4.63-4.26,31.74-32.03,64.13-63.58,96.81-94.74,0,0,7.49-7.14,7.49-7.14,3.93-3.91,7.4-8.27,10.29-13,13.33-21.61,13.03-50.52-.94-71.81-23.01-36.04-73.1-41.83-104.47-13.16-14.53,13.23-22.98,32.98-20.91,52.62.3,2.77.52,6.88.88,9.53,2.07,15.31,11.03,28.81,22.4,39.02,32.91,31.4,66.38,63.92,98.39,96.24,0,0,.97.97.97.97l.48.49c.11.11.17.17.03.03-.05-.05-.23-.2-.18-.16,8.19,7.12,18.12,13.26,28.08,17.19,15.82,6.56,33.11,5.74,48.75-.43,28.33-11.1,46.91-39.78,46.54-70.16.24-33.85-22.9-64.92-54.26-77.02-6.68-2.62-13.76-4.52-21.13-5.7,7.37-1.12,15-1.21,22.63-.29,7.69.95,15.34,2.98,22.53,5.91,18.74,7.68,34.81,21.72,45.12,39.16,26.65,44.27,13.64,103.13-27.63,133.88-17.98,13.77-40.46,21.42-63.11,21.82-25.28.19-49.14-9.59-69.37-23.76-2.95-2.09-6.08-4.48-8.84-6.92-11.43-10.84-22.73-21.83-34.04-32.8-22.62-22.1-46.52-45.89-68.7-68.29-2.32-2.36-4.67-4.92-6.78-7.41-14.82-17.58-24.52-39.81-25.31-63.02-2.42-25.12,3.77-50.39,18.15-71.15C140.56,10.58,189.66-8.02,233.92,3.28c48.53,11.7,84.08,56.65,84.29,106.61.25,19.47-4.76,38.96-14.33,55.93-4.53,8-10.04,15.43-16.36,22.13,0,0-8.28,8.35-8.28,8.35-10.35,10.43-20.74,20.81-31.15,31.17-21.85,21.72-44.06,43.38-66.44,64.7-1.89,1.73-4.64,4.13-6.65,5.72-45.51,36.31-112.72,30.68-150.45-14.05-30.85-35.97-33.27-90.75-3.67-128.11,19.26-24.87,52-39.5,83.32-34.52h0Z"/>
  </g>
</svg>